<svg xmlns="http://www.w3.org/2000/svg" viewBox="0 0 24 24" width="64" height="64">
  <defs>
    <linearGradient id="evanti-grad" x1="0" y1="0" x2="1" y2="1">
      <stop offset="0%" stop-color="#7c3aed"/>
      <stop offset="50%" stop-color="#f472b6"/>
      <stop offset="100%" stop-color="#3b82f6"/>
    </linearGradient>
  </defs>
  <rect width="24" height="24" rx="6" ry="6" fill="#0b0b0f"/>
  <g fill="none" stroke="url(#evanti-grad)" stroke-width="2" stroke-linecap="round" stroke-linejoin="round">
    <path d="M15 5.25a.75.75 0 0 1 .75-.75h3a.75.75 0 0 1 .75.75v13.5a.75.75 0 0 1-.75.75h-3a.75.75 0 0 1-.75-.75V5.25Z"/>
    <path d="M9.75 12h-6a.75.75 0 0 1-.75-.75V8.25a.75.75 0 0 1 .75-.75h6a.75.75 0 0 1 .75.75v3a.75.75 0 0 1-.75.75Z"/>
    <path d="M12.75 19.5h-9a.75.75 0 0 1-.75-.75v-3a.75.75 0 0 1 .75-.75h9a.75.75 0 0 1 .75.75v3a.75.75 0 0 1-.75.75Z"/>
    <path d="M12.75 7.5h-9a.75.75 0 0 1-.75-.75v-3a.75.75 0 0 1 .75-.75h9a.75.75 0 0 1 .75.75v3a.75.75 0 0 1-.75.75Z"/>
  </g>
</svg>
